<svg width="1242" height="734" viewBox="0 0 1242 734" fill="none" xmlns="http://www.w3.org/2000/svg">
<path fill-rule="evenodd" clip-rule="evenodd" d="M422.748 140.007C590.167 139.547 784.196 160.025 839.627 300.133C897.686 446.879 782.81 595.391 637.198 682.041C508.92 758.376 345.593 747.448 218.244 669.901C77.8627 584.418 -41.3875 445.292 13.7571 302.406C67.2352 163.838 257.609 140.462 422.748 140.007Z" fill="#E5E5E5"/>
<path fill-rule="evenodd" clip-rule="evenodd" d="M495.46 414.99C522.094 475.786 643.023 446.139 720.497 463.973C799.435 482.145 859.415 549.664 946.8 518.889C1035.86 487.522 1075.4 399.293 1110.51 326.618C1142.13 261.159 1157.9 193.233 1131.21 137.162C1105.09 82.2789 1044.18 48.2203 971.606 34.78C901.749 21.842 820.641 30.1978 749.052 66.3836C681.847 100.353 652.144 161.437 612.086 216.504C563.668 283.063 468.827 354.194 495.46 414.99Z" fill="#C4C4C4"/>
</svg>
