<svg width="305" height="94" viewBox="0 0 305 94" fill="none" xmlns="http://www.w3.org/2000/svg">
<path d="M286.281 68.4531C286.281 66.6562 286.88 65.1979 288.078 64.0781C289.302 62.9583 290.826 62.3984 292.648 62.3984C294.497 62.3984 296.021 62.9583 297.219 64.0781C298.443 65.1979 299.055 66.6562 299.055 68.4531C299.055 70.224 298.456 71.6693 297.258 72.7891C296.06 73.8828 294.523 74.4297 292.648 74.4297C290.799 74.4297 289.276 73.8828 288.078 72.7891C286.88 71.6693 286.281 70.224 286.281 68.4531Z" fill="#FF2001"/>
<path d="M14.7852 61.2852L11.7383 64.332V74H3.27148V29H11.7383V53.9316L13.3789 51.8223L21.4941 42.3008H31.6602L20.2051 55.5137L32.6562 74H22.9297L14.7852 61.2852ZM34.0039 57.8574C34.0039 54.7129 34.6094 51.9102 35.8203 49.4492C37.0312 46.9883 38.7695 45.084 41.0352 43.7363C43.3203 42.3887 45.9668 41.7148 48.9746 41.7148C53.252 41.7148 56.7383 43.0234 59.4336 45.6406C62.1484 48.2578 63.6621 51.8125 63.9746 56.3047L64.0332 58.4727C64.0332 63.3359 62.6758 67.2422 59.9609 70.1914C57.2461 73.1211 53.6035 74.5859 49.0332 74.5859C44.4629 74.5859 40.8105 73.1211 38.0762 70.1914C35.3613 67.2617 34.0039 63.2773 34.0039 58.2383V57.8574ZM42.4707 58.4727C42.4707 61.4805 43.0371 63.7852 44.1699 65.3867C45.3027 66.9688 46.9238 67.7598 49.0332 67.7598C51.084 67.7598 52.6855 66.9785 53.8379 65.416C54.9902 63.834 55.5664 61.3145 55.5664 57.8574C55.5664 54.9082 54.9902 52.623 53.8379 51.002C52.6855 49.3809 51.0645 48.5703 48.9746 48.5703C46.9043 48.5703 45.3027 49.3809 44.1699 51.002C43.0371 52.6035 42.4707 55.0938 42.4707 58.4727ZM88.2324 70.7773C86.1426 73.3164 83.252 74.5859 79.5605 74.5859C76.1621 74.5859 73.5645 73.6094 71.7676 71.6562C69.9902 69.7031 69.082 66.8418 69.043 63.0723V42.3008H77.5098V62.7793C77.5098 66.0801 79.0137 67.7305 82.0215 67.7305C84.8926 67.7305 86.8652 66.7344 87.9395 64.7422V42.3008H96.4355V74H88.4668L88.2324 70.7773ZM110.615 42.3008L110.879 45.9629C113.145 43.1309 116.182 41.7148 119.99 41.7148C123.35 41.7148 125.85 42.7012 127.49 44.6738C129.131 46.6465 129.971 49.5957 130.01 53.5215V74H121.543V53.7266C121.543 51.9297 121.152 50.6309 120.371 49.8301C119.59 49.0098 118.291 48.5996 116.475 48.5996C114.092 48.5996 112.305 49.6152 111.113 51.6465V74H102.646V42.3008H110.615ZM149.639 67.7598C151.201 67.7598 152.471 67.3301 153.447 66.4707C154.424 65.6113 154.932 64.4688 154.971 63.043H162.91C162.891 65.1914 162.305 67.1641 161.152 68.9609C160 70.7383 158.418 72.125 156.406 73.1211C154.414 74.0977 152.207 74.5859 149.785 74.5859C145.254 74.5859 141.68 73.1504 139.062 70.2793C136.445 67.3887 135.137 63.4043 135.137 58.3262V57.7695C135.137 52.8867 136.436 48.9902 139.033 46.0801C141.631 43.1699 145.195 41.7148 149.727 41.7148C153.691 41.7148 156.865 42.8477 159.248 45.1133C161.65 47.3594 162.871 50.3574 162.91 54.1074H154.971C154.932 52.4668 154.424 51.1387 153.447 50.123C152.471 49.0879 151.182 48.5703 149.58 48.5703C147.607 48.5703 146.113 49.293 145.098 50.7383C144.102 52.1641 143.604 54.4883 143.604 57.7109V58.5898C143.604 61.8516 144.102 64.1953 145.098 65.6211C146.094 67.0469 147.607 67.7598 149.639 67.7598ZM182.334 74.5859C177.686 74.5859 173.896 73.1602 170.967 70.3086C168.057 67.457 166.602 63.6582 166.602 58.9121V58.0918C166.602 54.9082 167.217 52.0664 168.447 49.5664C169.678 47.0469 171.416 45.1133 173.662 43.7656C175.928 42.3984 178.506 41.7148 181.396 41.7148C185.732 41.7148 189.141 43.082 191.621 45.8164C194.121 48.5508 195.371 52.4277 195.371 57.4473V60.9043H175.186C175.459 62.9746 176.279 64.6348 177.646 65.8848C179.033 67.1348 180.781 67.7598 182.891 67.7598C186.152 67.7598 188.701 66.5781 190.537 64.2148L194.697 68.873C193.428 70.6699 191.709 72.0762 189.541 73.0918C187.373 74.0879 184.971 74.5859 182.334 74.5859ZM181.367 48.5703C179.688 48.5703 178.32 49.1367 177.266 50.2695C176.23 51.4023 175.566 53.0234 175.273 55.1328H187.051V54.459C187.012 52.584 186.504 51.1387 185.527 50.123C184.551 49.0879 183.164 48.5703 181.367 48.5703ZM209.141 74H200.645V29H209.141V74ZM225.078 74H216.582V42.3008H225.078V74ZM216.084 34.0977C216.084 32.8281 216.504 31.7832 217.344 30.9629C218.203 30.1426 219.365 29.7324 220.83 29.7324C222.275 29.7324 223.428 30.1426 224.287 30.9629C225.146 31.7832 225.576 32.8281 225.576 34.0977C225.576 35.3867 225.137 36.4414 224.258 37.2617C223.398 38.082 222.256 38.4922 220.83 38.4922C219.404 38.4922 218.252 38.082 217.373 37.2617C216.514 36.4414 216.084 35.3867 216.084 34.0977ZM249.248 65.2402C249.248 64.2051 248.73 63.3945 247.695 62.8086C246.68 62.2031 245.039 61.666 242.773 61.1973C235.234 59.6152 231.465 56.4121 231.465 51.5879C231.465 48.7754 232.627 46.4316 234.951 44.5566C237.295 42.6621 240.352 41.7148 244.121 41.7148C248.145 41.7148 251.357 42.6621 253.76 44.5566C256.182 46.4512 257.393 48.9121 257.393 51.9395H248.926C248.926 50.7285 248.535 49.7324 247.754 48.9512C246.973 48.1504 245.752 47.75 244.092 47.75C242.666 47.75 241.562 48.0723 240.781 48.7168C240 49.3613 239.609 50.1816 239.609 51.1777C239.609 52.1152 240.049 52.877 240.928 53.4629C241.826 54.0293 243.33 54.5273 245.439 54.957C247.549 55.3672 249.326 55.8359 250.771 56.3633C255.244 58.0039 257.48 60.8457 257.48 64.8887C257.48 67.7793 256.24 70.123 253.76 71.9199C251.279 73.6973 248.076 74.5859 244.15 74.5859C241.494 74.5859 239.131 74.1172 237.061 73.1797C235.01 72.2227 233.398 70.9238 232.227 69.2832C231.055 67.623 230.469 65.8359 230.469 63.9219H238.496C238.574 65.4258 239.131 66.5781 240.166 67.3789C241.201 68.1797 242.588 68.5801 244.326 68.5801C245.947 68.5801 247.168 68.2773 247.988 67.6719C248.828 67.0469 249.248 66.2363 249.248 65.2402ZM273.096 34.5078V42.3008H278.516V48.5117H273.096V64.332C273.096 65.5039 273.32 66.3438 273.77 66.8516C274.219 67.3594 275.078 67.6133 276.348 67.6133C277.285 67.6133 278.115 67.5449 278.838 67.4082V73.8242C277.178 74.332 275.469 74.5859 273.711 74.5859C267.773 74.5859 264.746 71.5879 264.629 65.5918V48.5117H260V42.3008H264.629V34.5078H273.096Z" fill="black"/>
</svg>
