<svg width="297" height="46" viewBox="0 0 297 46" fill="none" xmlns="http://www.w3.org/2000/svg">
<path d="M283.281 39.4531C283.281 37.6562 283.88 36.1979 285.078 35.0781C286.302 33.9583 287.826 33.3984 289.648 33.3984C291.497 33.3984 293.021 33.9583 294.219 35.0781C295.443 36.1979 296.055 37.6562 296.055 39.4531C296.055 41.224 295.456 42.6693 294.258 43.7891C293.06 44.8828 291.523 45.4297 289.648 45.4297C287.799 45.4297 286.276 44.8828 285.078 43.7891C283.88 42.6693 283.281 41.224 283.281 39.4531Z" fill="#FF2001"/>
<path d="M11.7852 32.2852L8.73828 35.332V45H0.271484V0H8.73828V24.9316L10.3789 22.8223L18.4941 13.3008H28.6602L17.2051 26.5137L29.6562 45H19.9297L11.7852 32.2852Z" fill="black"/>
<path d="M31.0039 28.8574C31.0039 25.7129 31.6094 22.9102 32.8203 20.4492C34.0312 17.9883 35.7695 16.084 38.0352 14.7363C40.3203 13.3887 42.9668 12.7148 45.9746 12.7148C50.252 12.7148 53.7383 14.0234 56.4336 16.6406C59.1484 19.2578 60.6621 22.8125 60.9746 27.3047L61.0332 29.4727C61.0332 34.3359 59.6758 38.2422 56.9609 41.1914C54.2461 44.1211 50.6035 45.5859 46.0332 45.5859C41.4629 45.5859 37.8105 44.1211 35.0762 41.1914C32.3613 38.2617 31.0039 34.2773 31.0039 29.2383V28.8574ZM39.4707 29.4727C39.4707 32.4805 40.0371 34.7852 41.1699 36.3867C42.3027 37.9688 43.9238 38.7598 46.0332 38.7598C48.084 38.7598 49.6855 37.9785 50.8379 36.416C51.9902 34.834 52.5664 32.3145 52.5664 28.8574C52.5664 25.9082 51.9902 23.623 50.8379 22.002C49.6855 20.3809 48.0645 19.5703 45.9746 19.5703C43.9043 19.5703 42.3027 20.3809 41.1699 22.002C40.0371 23.6035 39.4707 26.0938 39.4707 29.4727Z" fill="black"/>
<path d="M85.2324 41.7773C83.1426 44.3164 80.252 45.5859 76.5605 45.5859C73.1621 45.5859 70.5645 44.6094 68.7676 42.6562C66.9902 40.7031 66.082 37.8418 66.043 34.0723V13.3008H74.5098V33.7793C74.5098 37.0801 76.0137 38.7305 79.0215 38.7305C81.8926 38.7305 83.8652 37.7344 84.9395 35.7422V13.3008H93.4355V45H85.4668L85.2324 41.7773Z" fill="black"/>
<path d="M107.615 13.3008L107.879 16.9629C110.145 14.1309 113.182 12.7148 116.99 12.7148C120.35 12.7148 122.85 13.7012 124.49 15.6738C126.131 17.6465 126.971 20.5957 127.01 24.5215V45H118.543V24.7266C118.543 22.9297 118.152 21.6309 117.371 20.8301C116.59 20.0098 115.291 19.5996 113.475 19.5996C111.092 19.5996 109.305 20.6152 108.113 22.6465V45H99.6465V13.3008H107.615Z" fill="black"/>
<path d="M146.639 38.7598C148.201 38.7598 149.471 38.3301 150.447 37.4707C151.424 36.6113 151.932 35.4688 151.971 34.043H159.91C159.891 36.1914 159.305 38.1641 158.152 39.9609C157 41.7383 155.418 43.125 153.406 44.1211C151.414 45.0977 149.207 45.5859 146.785 45.5859C142.254 45.5859 138.68 44.1504 136.062 41.2793C133.445 38.3887 132.137 34.4043 132.137 29.3262V28.7695C132.137 23.8867 133.436 19.9902 136.033 17.0801C138.631 14.1699 142.195 12.7148 146.727 12.7148C150.691 12.7148 153.865 13.8477 156.248 16.1133C158.65 18.3594 159.871 21.3574 159.91 25.1074H151.971C151.932 23.4668 151.424 22.1387 150.447 21.123C149.471 20.0879 148.182 19.5703 146.58 19.5703C144.607 19.5703 143.113 20.293 142.098 21.7383C141.102 23.1641 140.604 25.4883 140.604 28.7109V29.5898C140.604 32.8516 141.102 35.1953 142.098 36.6211C143.094 38.0469 144.607 38.7598 146.639 38.7598Z" fill="black"/>
<path d="M179.334 45.5859C174.686 45.5859 170.896 44.1602 167.967 41.3086C165.057 38.457 163.602 34.6582 163.602 29.9121V29.0918C163.602 25.9082 164.217 23.0664 165.447 20.5664C166.678 18.0469 168.416 16.1133 170.662 14.7656C172.928 13.3984 175.506 12.7148 178.396 12.7148C182.732 12.7148 186.141 14.082 188.621 16.8164C191.121 19.5508 192.371 23.4277 192.371 28.4473V31.9043H172.186C172.459 33.9746 173.279 35.6348 174.646 36.8848C176.033 38.1348 177.781 38.7598 179.891 38.7598C183.152 38.7598 185.701 37.5781 187.537 35.2148L191.697 39.873C190.428 41.6699 188.709 43.0762 186.541 44.0918C184.373 45.0879 181.971 45.5859 179.334 45.5859ZM178.367 19.5703C176.688 19.5703 175.32 20.1367 174.266 21.2695C173.23 22.4023 172.566 24.0234 172.273 26.1328H184.051V25.459C184.012 23.584 183.504 22.1387 182.527 21.123C181.551 20.0879 180.164 19.5703 178.367 19.5703Z" fill="black"/>
<path d="M206.141 45H197.645V0H206.141V45Z" fill="black"/>
<path d="M222.078 45H213.582V13.3008H222.078V45ZM213.084 5.09766C213.084 3.82812 213.504 2.7832 214.344 1.96289C215.203 1.14258 216.365 0.732422 217.83 0.732422C219.275 0.732422 220.428 1.14258 221.287 1.96289C222.146 2.7832 222.576 3.82812 222.576 5.09766C222.576 6.38672 222.137 7.44141 221.258 8.26172C220.398 9.08203 219.256 9.49219 217.83 9.49219C216.404 9.49219 215.252 9.08203 214.373 8.26172C213.514 7.44141 213.084 6.38672 213.084 5.09766Z" fill="black"/>
<path d="M246.248 36.2402C246.248 35.2051 245.73 34.3945 244.695 33.8086C243.68 33.2031 242.039 32.666 239.773 32.1973C232.234 30.6152 228.465 27.4121 228.465 22.5879C228.465 19.7754 229.627 17.4316 231.951 15.5566C234.295 13.6621 237.352 12.7148 241.121 12.7148C245.145 12.7148 248.357 13.6621 250.76 15.5566C253.182 17.4512 254.393 19.9121 254.393 22.9395H245.926C245.926 21.7285 245.535 20.7324 244.754 19.9512C243.973 19.1504 242.752 18.75 241.092 18.75C239.666 18.75 238.562 19.0723 237.781 19.7168C237 20.3613 236.609 21.1816 236.609 22.1777C236.609 23.1152 237.049 23.877 237.928 24.4629C238.826 25.0293 240.33 25.5273 242.439 25.957C244.549 26.3672 246.326 26.8359 247.771 27.3633C252.244 29.0039 254.48 31.8457 254.48 35.8887C254.48 38.7793 253.24 41.123 250.76 42.9199C248.279 44.6973 245.076 45.5859 241.15 45.5859C238.494 45.5859 236.131 45.1172 234.061 44.1797C232.01 43.2227 230.398 41.9238 229.227 40.2832C228.055 38.623 227.469 36.8359 227.469 34.9219H235.496C235.574 36.4258 236.131 37.5781 237.166 38.3789C238.201 39.1797 239.588 39.5801 241.326 39.5801C242.947 39.5801 244.168 39.2773 244.988 38.6719C245.828 38.0469 246.248 37.2363 246.248 36.2402Z" fill="black"/>
<path d="M270.096 5.50781V13.3008H275.516V19.5117H270.096V35.332C270.096 36.5039 270.32 37.3438 270.77 37.8516C271.219 38.3594 272.078 38.6133 273.348 38.6133C274.285 38.6133 275.115 38.5449 275.838 38.4082V44.8242C274.178 45.332 272.469 45.5859 270.711 45.5859C264.773 45.5859 261.746 42.5879 261.629 36.5918V19.5117H257V13.3008H261.629V5.50781H270.096Z" fill="black"/>
</svg>
